<?xml version="1.0" encoding="UTF-8" standalone="no"?>
<svg id="Layer_1" data-name="Layer 1" xmlns="http://www.w3.org/2000/svg" viewBox="0 0 140 140">
    <defs>
        <style>
            .cls-1 {
                fill: #3f83b9;
            }
            
            .cls-2 {
                fill: #fff;
            }
            
            .cls-3,
            .cls-4 {
                fill: none;
                stroke: #fff;
                stroke-miterlimit: 10;
            }
            
            .cls-3 {
                stroke-width: 3.64px;
            }
            
            .cls-4 {
                stroke-width: 5.45px;
            }
        </style>
    </defs>
    <title>Artboard 1</title>
    <circle class="cls-1" cx="70" cy="70" r="70" />
    <path class="cls-2" d="M100,41.15a12.8,12.8,0,0,0-3.57,4.52,3,3,0,0,1-.85-.35L80.37,38.5c-1.07-.14-8.13-.68-8.13,6V61.25c0-.44-1.51-.7-3-.7s-3,.26-3,.7V44.51c0-5.85-5.28-6.14-7.15-6.05L44.51,45.31a3.54,3.54,0,0,1-.81.31A13,13,0,0,0,40,41.06a3,3,0,0,1,1-1L60.1,28.71c0,.21,0,.4,0,.61a9.65,9.65,0,0,0,19.3,0,8.29,8.29,0,0,0,0-.89L98.87,40A3.23,3.23,0,0,1,100,41.15Z"
    />
    <path class="cls-2" d="M77.24,29.32a7.53,7.53,0,0,1-15,0,6.81,6.81,0,0,1,.31-2,7.41,7.41,0,0,1,5.37-5A7.15,7.15,0,0,1,69.71,22a7.29,7.29,0,0,1,1.85.23A7.42,7.42,0,0,1,76.82,27,6.78,6.78,0,0,1,77.24,29.32Z"
    />
    <circle class="cls-2" cx="107.77" cy="51.13" r="8.51" />
    <circle class="cls-2" cx="31.65" cy="51.13" r="8.51" />
    <circle class="cls-2" cx="31.65" cy="94.19" r="8.51" />
    <circle class="cls-2" cx="107.77" cy="94.19" r="8.51" />
    <circle class="cls-2" cx="69.53" cy="104.01" r="8.51" />
    <circle class="cls-2" cx="69.71" cy="73.4" r="8.51" />
    <line class="cls-3" x1="31.65" y1="51.13" x2="31.65" y2="94.19" />
    <line class="cls-3" x1="107.77" y1="51.13" x2="107.77" y2="94.19" />
    <line class="cls-4" x1="69.71" y1="73.4" x2="69.71" y2="105.36" />
    <line class="cls-3" x1="107.77" y1="51.13" x2="69.71" y2="73.4" />
    <line class="cls-3" x1="70" y1="73.4" x2="31.65" y2="51.13" />
</svg>